<svg xmlns="http://www.w3.org/2000/svg" xmlns:xlink="http://www.w3.org/1999/xlink" id="Livello_1" x="0px" y="0px" width="90.395px" height="57.114px" viewBox="0 0 90.395 57.114" xml:space="preserve"> <g> <path fill="#3F4447" d="M30.224,26.668c-1.813-0.562-3.651-1.041-5.509-1.431c-2.289-0.482-4.607-0.817-6.939-1 c-1.445-0.118-2.896-0.157-4.346-0.12c-1.857,0.034-3.71,0.2-5.544,0.494c-1.834,0.292-3.642,0.731-5.406,1.312 c-1.6,3.944-2.424,8.161-2.424,12.416c1.225-1.195,2.544-2.291,3.946-3.274c1.744-1.281,3.635-2.351,5.632-3.187 c3.031-1.29,6.232-2.141,9.504-2.527c3.057-0.415,6.144-0.571,9.228-0.465c3.202,0.09,6.397,0.378,9.564,0.863 c-1.138-0.594-2.308-1.124-3.505-1.588C33.051,27.596,31.648,27.098,30.224,26.668"></path> <path fill="#3F4447" d="M41.563,27.349c0.004,0.005,0.005,0.011,0.005,0.017c0,0.004-0.001,0.008-0.002,0.011 c-0.002,0.004-0.004,0.008-0.006,0.011c-0.003,0.004-0.007,0.008-0.013,0.012c-0.001,0.001-0.002,0.001-0.003,0.001 c-0.005,0.002-0.009,0.003-0.015,0.003c-0.014,0-0.028-0.008-0.033-0.021c-0.007-0.013-0.015-0.026-0.02-0.038 c0.013-0.006,0.028-0.011,0.041-0.016c0.016-0.005,0.033,0.002,0.043,0.015C41.561,27.346,41.562,27.347,41.563,27.349"></path> </g> <path fill="#3F4447" d="M41.564,27.376l0.004-0.011L41.564,27.376z"></path> <path fill="#3F4447" d="M41.56,27.388l0.005-0.012L41.56,27.388z"></path> <g> <path fill="#3F4447" d="M41.544,27.399c-0.001,0.001-0.002,0.003-0.002,0.003c-0.72,0.24-1.417,0.557-2.073,0.938 c0.002-0.002,0.005-0.004,0.008-0.007c0.015-0.016,0.013-0.04-0.003-0.054c-0.005-0.006-0.013-0.012-0.02-0.019 c0.641-0.371,1.32-0.678,2.021-0.917c0.007,0.013,0.015,0.026,0.021,0.039c0.006,0.013,0.019,0.02,0.033,0.02 C41.534,27.404,41.539,27.404,41.544,27.399"></path> <path fill="#3F4447" d="M41.56,27.344c-0.01-0.013-0.027-0.02-0.043-0.014c-0.014,0.004-0.028,0.009-0.042,0.015 c-0.66-1.264-1.397-2.506-2.188-3.694c0.007,0.01,0.02,0.017,0.032,0.017c0.006,0,0.014-0.002,0.021-0.007 c0.015-0.009,0.022-0.029,0.013-0.047C40.153,24.812,40.895,26.066,41.56,27.344"></path> <path fill="#3F4447" d="M39.474,28.28c0.016,0.014,0.018,0.039,0.003,0.054c-0.003,0.003-0.006,0.005-0.01,0.007 c-0.001,0.001-0.003,0.003-0.005,0.003c-0.004,0.001-0.009,0.003-0.013,0.003c-0.004,0-0.008-0.002-0.011-0.003 c-0.003,0-0.005-0.002-0.007-0.003c-0.007-0.003-0.011-0.007-0.015-0.014c-0.011-0.018-0.004-0.041,0.014-0.052 c0.008-0.003,0.016-0.008,0.023-0.014C39.461,28.269,39.467,28.273,39.474,28.28"></path> </g> <path fill="#3F4447" d="M39.45,28.347l0.013-0.002L39.45,28.347z"></path> <g> <path fill="#3F4447" d="M39.454,28.262c-0.007,0.005-0.016,0.01-0.023,0.014c-0.019,0.011-0.025,0.033-0.015,0.051 c0.005,0.007,0.009,0.012,0.016,0.015c-0.003,0-0.006-0.002-0.008-0.005c-1.039-0.943-2.141-1.836-3.279-2.658 c0.007,0.005,0.015,0.007,0.022,0.007c0.012,0,0.024-0.007,0.032-0.017c0.011-0.018,0.007-0.041-0.01-0.053h0.001 C37.321,26.434,38.42,27.324,39.454,28.262"></path> </g> <path fill="#3F4447" d="M39.438,28.345l-0.006-0.003L39.438,28.345z"></path> <g> <path fill="#3F4447" d="M39.354,23.614c0.008,0.018,0.001,0.038-0.013,0.047c-0.007,0.005-0.014,0.007-0.021,0.007 c-0.013,0-0.025-0.007-0.033-0.017c-0.011-0.017-0.006-0.042,0.011-0.053c0.018-0.012,0.041-0.007,0.053,0.011 C39.352,23.611,39.353,23.612,39.354,23.614"></path> <path fill="#3F4447" d="M39.351,23.607c0.002,0.002,0.003,0.003,0.003,0.005C39.353,23.612,39.351,23.611,39.351,23.607 c-0.013-0.018-0.036-0.022-0.053-0.011c-0.018,0.011-0.023,0.036-0.011,0.053c-0.788-1.228-1.66-2.42-2.593-3.542 c0.008,0.009,0.018,0.014,0.03,0.014c0.008,0,0.016-0.004,0.023-0.007c0.016-0.013,0.019-0.037,0.007-0.053 C37.688,21.186,38.561,22.38,39.351,23.607"></path> <path fill="#3F4447" d="M36.754,20.062c0.013,0.016,0.01,0.04-0.006,0.053c-0.008,0.004-0.015,0.007-0.024,0.007 c-0.011,0-0.022-0.005-0.029-0.014l-0.001-0.001c-0.013-0.016-0.012-0.039,0.006-0.052c0.016-0.014,0.04-0.011,0.053,0.005 L36.754,20.062"></path> <path fill="#3F4447" d="M36.753,20.06c-0.013-0.016-0.036-0.019-0.054-0.005c-0.016,0.013-0.018,0.036-0.005,0.052 c-0.784-1.026-1.65-2.001-2.574-2.903c0.007,0.007,0.016,0.011,0.025,0.011s0.019-0.004,0.026-0.011 c0.015-0.014,0.017-0.039,0.002-0.054C35.099,18.054,35.968,19.034,36.753,20.06"></path> <path fill="#3F4447" d="M36.188,25.616c0.018,0.012,0.021,0.036,0.01,0.052c-0.007,0.012-0.02,0.018-0.031,0.018 c-0.008,0-0.015-0.002-0.022-0.008h-0.001h-0.001c-0.015-0.014-0.019-0.036-0.007-0.054c0.011-0.016,0.032-0.019,0.049-0.01 C36.186,25.614,36.187,25.615,36.188,25.616"></path> <path fill="#3F4447" d="M36.185,25.614c-0.016-0.009-0.038-0.006-0.049,0.01c-0.013,0.018-0.008,0.041,0.007,0.053 c-1.129-0.782-2.311-1.517-3.51-2.187c0.007,0.003,0.013,0.005,0.018,0.005c0.015,0,0.028-0.007,0.034-0.019 c0.01-0.018,0.004-0.042-0.014-0.053C33.872,24.093,35.055,24.831,36.185,25.614"></path> <path fill="#3F4447" d="M34.172,17.149c0.015,0.015,0.014,0.04-0.001,0.054c-0.007,0.008-0.017,0.01-0.026,0.01 c-0.01,0-0.019-0.002-0.026-0.01h-0.001l-0.001-0.002c-0.014-0.014-0.014-0.037,0-0.052C34.132,17.136,34.156,17.136,34.172,17.149 "></path> <path fill="#3F4447" d="M34.171,17.148c-0.015-0.014-0.039-0.014-0.054,0c-0.014,0.016-0.014,0.039,0,0.054 c-1.112-1.17-2.313-2.274-3.572-3.283c0.007,0.005,0.015,0.009,0.024,0.009c0.011,0,0.022-0.006,0.03-0.015 c0.012-0.015,0.011-0.04-0.006-0.054C31.854,14.874,33.057,15.979,34.171,17.148"></path> <path fill="#3F4447" d="M32.671,23.423c0.018,0.01,0.025,0.034,0.014,0.052c-0.006,0.012-0.019,0.02-0.034,0.02 c-0.005,0-0.011-0.002-0.018-0.005c-0.018-0.01-0.024-0.034-0.014-0.052C32.629,23.42,32.653,23.414,32.671,23.423"></path> <path fill="#3F4447" d="M32.671,23.423c-0.018-0.01-0.042-0.003-0.052,0.015c-0.01,0.018-0.004,0.042,0.014,0.052 c-1.382-0.773-2.823-1.477-4.282-2.093c0.005,0.003,0.01,0.003,0.015,0.003c0.015,0,0.029-0.009,0.036-0.023 c0.007-0.019-0.002-0.042-0.021-0.05C29.842,21.945,31.287,22.65,32.671,23.423"></path> <path fill="#3F4447" d="M30.593,13.861c0.017,0.013,0.02,0.038,0.007,0.054c-0.008,0.008-0.019,0.013-0.03,0.013 c-0.009,0-0.018-0.003-0.024-0.008c-0.017-0.013-0.019-0.037-0.005-0.054C30.554,13.851,30.577,13.849,30.593,13.861"></path> <path fill="#3F4447" d="M30.593,13.861c-0.016-0.013-0.039-0.011-0.052,0.005c-0.015,0.017-0.012,0.041,0.005,0.054 c-1.12-0.899-2.314-1.724-3.552-2.452c0.006,0.003,0.013,0.006,0.019,0.006c0.013,0,0.026-0.006,0.033-0.018 c0.01-0.019,0.005-0.042-0.013-0.053C28.273,12.133,29.472,12.959,30.593,13.861"></path> <path fill="#3F4447" d="M28.381,21.327c0.019,0.008,0.028,0.031,0.02,0.051c-0.006,0.013-0.02,0.023-0.035,0.023 c-0.005,0-0.01-0.001-0.015-0.003c-0.019-0.009-0.028-0.031-0.019-0.05C28.339,21.327,28.361,21.32,28.381,21.327"></path> <path fill="#3F4447" d="M28.381,21.327c-0.02-0.007-0.042,0-0.049,0.021c-0.009,0.019,0,0.041,0.019,0.05 c-1.476-0.622-2.999-1.183-4.527-1.67c0.005,0.001,0.008,0.001,0.012,0.001c0.016,0,0.031-0.01,0.036-0.027 c0.006-0.02-0.005-0.041-0.025-0.047C25.376,20.143,26.902,20.705,28.381,21.327"></path> <path fill="#3F4447" d="M27.033,11.403c0.018,0.011,0.023,0.034,0.013,0.052c-0.006,0.012-0.019,0.019-0.033,0.019 c-0.006,0-0.013-0.002-0.019-0.006c-0.018-0.01-0.025-0.034-0.014-0.051C26.991,11.399,27.014,11.393,27.033,11.403"></path> <path fill="#3F4447" d="M27.033,11.403c-0.018-0.011-0.042-0.004-0.053,0.014c-0.011,0.017-0.004,0.041,0.014,0.051 c-0.835-0.498-1.713-0.941-2.609-1.318c0.005,0.003,0.009,0.003,0.014,0.003c0.015,0,0.03-0.008,0.036-0.023 c0.008-0.019-0.001-0.041-0.021-0.049C25.314,10.458,26.195,10.903,27.033,11.403"></path> <path fill="#3F4447" d="M24.415,10.081c0.02,0.009,0.028,0.03,0.021,0.049c-0.007,0.016-0.021,0.024-0.036,0.024 c-0.005,0-0.01-0.001-0.015-0.003c-0.019-0.008-0.028-0.03-0.021-0.049C24.374,10.082,24.395,10.073,24.415,10.081"></path> <path fill="#3F4447" d="M24.415,10.081c-0.02-0.008-0.041,0.001-0.051,0.021c-0.007,0.019,0.002,0.041,0.021,0.049 c-0.969-0.413-1.983-0.73-3.015-0.944c0.017,0,0.034-0.012,0.037-0.03c0.005-0.021-0.008-0.041-0.029-0.045 C22.417,9.346,23.438,9.665,24.415,10.081"></path> <path fill="#3F4447" d="M23.847,19.655c0.02,0.006,0.031,0.028,0.025,0.047c-0.005,0.017-0.02,0.027-0.036,0.027 c-0.004,0-0.007,0-0.012-0.001c-0.02-0.006-0.031-0.028-0.024-0.048C23.806,19.659,23.827,19.649,23.847,19.655"></path> <path fill="#3F4447" d="M23.847,19.655c-0.02-0.006-0.041,0.004-0.047,0.025c-0.007,0.02,0.004,0.042,0.024,0.048 c-1.846-0.573-3.743-1.047-5.641-1.409h0.006c0.018,0,0.034-0.014,0.038-0.032c0.003-0.02-0.01-0.04-0.03-0.044 C20.097,18.606,21.999,19.08,23.847,19.655"></path> <path fill="#3F4447" d="M21.377,9.131c0.021,0.004,0.034,0.025,0.029,0.046c-0.003,0.018-0.019,0.029-0.036,0.029 c-0.003,0-0.006-0.001-0.008-0.001h-0.001c-0.02-0.005-0.033-0.023-0.03-0.044c0.004-0.018,0.02-0.03,0.039-0.03H21.377"></path> <path fill="#3F4447" d="M21.369,9.13c-0.018,0-0.034,0.013-0.038,0.031c-0.004,0.02,0.009,0.039,0.03,0.044 c-0.99-0.222-2.006-0.328-3.021-0.315c0.019,0,0.037-0.017,0.037-0.038s-0.019-0.036-0.039-0.037 C19.356,8.801,20.376,8.909,21.369,9.13"></path> <path fill="#3F4447" d="M18.377,8.853c0,0.02-0.017,0.037-0.038,0.037h-0.001c-0.02,0-0.038-0.016-0.038-0.037 c0-0.021,0.017-0.038,0.038-0.038C18.357,8.816,18.377,8.832,18.377,8.853"></path> <path fill="#3F4447" d="M18.338,8.814c-0.021,0-0.038,0.018-0.038,0.039s0.017,0.036,0.038,0.036 c-0.785,0.011-1.568,0.117-2.327,0.314c0.002-0.002,0.004-0.002,0.005-0.004c0.018-0.011,0.022-0.035,0.01-0.052 C16.017,9.135,16,9.129,15.987,9.133C16.754,8.931,17.544,8.825,18.338,8.814"></path> <path fill="#3F4447" d="M18.197,18.243c0.02,0.004,0.033,0.023,0.03,0.044c-0.004,0.018-0.02,0.031-0.038,0.031h-0.006h-0.001 h-0.001c-0.02-0.006-0.033-0.024-0.03-0.045c0.005-0.018,0.021-0.031,0.038-0.031C18.19,18.242,18.194,18.243,18.197,18.243"></path> <path fill="#3F4447" d="M18.189,18.242c-0.017,0-0.033,0.013-0.038,0.031c-0.003,0.021,0.01,0.04,0.03,0.046 c-1.828-0.324-3.695-0.53-5.549-0.615c0.018,0,0.036-0.016,0.038-0.036c0.001-0.021-0.016-0.039-0.036-0.04 C14.49,17.714,16.359,17.921,18.189,18.242"></path> <path fill="#3F4447" d="M16.027,9.146c0.012,0.018,0.007,0.041-0.01,0.053c-0.002,0.001-0.003,0.002-0.005,0.003 c-0.002,0.001-0.004,0.001-0.006,0.003c-0.004,0-0.007,0.001-0.01,0.001c-0.018,0-0.033-0.012-0.038-0.029 c-0.004-0.015,0.002-0.031,0.015-0.041h0.001c0.004-0.002,0.007-0.004,0.012-0.005h0.001C16,9.13,16.017,9.135,16.027,9.146"></path> <path fill="#3F4447" d="M16.005,9.206c0.002-0.001,0.004-0.001,0.007-0.002c-3.521,2.468-6.589,5.48-9.119,8.954 c-0.033,0.006-0.067,0.015-0.1,0.023c-0.007,0.003-0.014,0.006-0.019,0.012c2.547-3.517,5.642-6.564,9.198-9.054 c-0.013,0.008-0.019,0.025-0.014,0.04c0.004,0.017,0.02,0.029,0.037,0.029C15.998,9.208,16.002,9.206,16.005,9.206"></path> </g> <path fill="#3F4447" d="M15.974,9.138l0.011-0.005L15.974,9.138z"></path> <g> <path fill="#3F4447" d="M12.633,17.627c0.02,0.001,0.038,0.019,0.036,0.04c0,0.02-0.019,0.036-0.037,0.036H12.63 c-0.022-0.001-0.038-0.018-0.036-0.04C12.595,17.644,12.615,17.629,12.633,17.627"></path> <path fill="#3F4447" d="M12.633,17.627c-0.018,0.001-0.038,0.016-0.039,0.036c-0.002,0.022,0.014,0.039,0.036,0.04 c-1.957-0.09-3.914,0.096-5.818,0.55c-0.001,0-0.004,0.002-0.004,0c0.009,0,0.019-0.005,0.025-0.015 c0.021-0.028,0.04-0.054,0.06-0.082C8.774,17.717,10.704,17.539,12.633,17.627"></path> <path fill="#3F4447" d="M6.894,18.157c-0.021,0.028-0.04,0.055-0.06,0.083c-0.007,0.008-0.017,0.014-0.026,0.015 c-0.002,0.001-0.004,0.001-0.005,0.001c-0.004,0-0.008,0-0.012-0.002c-0.003-0.001-0.007-0.004-0.01-0.006 c-0.004-0.003-0.008-0.006-0.009-0.009c-0.002-0.002-0.002-0.005-0.004-0.007c-0.003-0.004-0.003-0.008-0.003-0.013 c-0.001-0.009,0.003-0.019,0.01-0.026c0.005-0.006,0.011-0.01,0.019-0.013C6.827,18.173,6.859,18.165,6.894,18.157"></path> <path fill="#3F4447" d="M6.781,18.248c0.003,0.002,0.006,0.005,0.011,0.006c-0.009-0.003-0.016-0.008-0.021-0.016 C6.773,18.242,6.776,18.245,6.781,18.248"></path> </g> <polygon fill="#3F4447" points="6.766,18.228 6.769,18.232 6.766,18.221 "></polygon> <g> <path fill="#3F4447" d="M68.098,46.106c0-2.397-1.945-4.342-4.345-4.342c-2.397,0-4.344,1.943-4.344,4.342 c0,2.399,1.944,4.345,4.344,4.345S68.098,48.507,68.098,46.106 M62.352,39.174c3.83,0,6.934,3.105,6.934,6.935 c0,3.83-3.104,6.936-6.934,6.936c-3.828,0-6.935-3.104-6.935-6.936C55.417,42.279,58.523,39.174,62.352,39.174"></path> <path fill="#3F4447" d="M83.673,18.21c0.001,0.004,0.001,0.009,0,0.013c0,0.003-0.002,0.007-0.004,0.008 c-0.004,0.007-0.012,0.013-0.022,0.013c-0.002,0-0.004,0-0.006-0.001c-0.007-0.001-0.013-0.006-0.015-0.01 c-0.017-0.019-0.028-0.038-0.043-0.058c0.022,0.006,0.045,0.011,0.069,0.016c0.005,0.001,0.009,0.004,0.013,0.006 c0,0.002,0.002,0.003,0.002,0.004C83.669,18.205,83.671,18.208,83.673,18.21"></path> <path fill="#3F4447" d="M83.666,18.197c-0.004-0.002-0.008-0.004-0.014-0.005c-0.023-0.005-0.045-0.011-0.068-0.016 c-2.535-3.487-5.609-6.51-9.139-8.982h0.002c0.004,0.002,0.006,0.002,0.008,0.002c0.012,0,0.023-0.008,0.025-0.02 c0.002-0.009,0.002-0.018-0.004-0.024C78.029,11.641,81.121,14.685,83.666,18.197"></path> <path fill="#3F4447" d="M83.625,18.233c0.005,0.004,0.009,0.008,0.016,0.01c-1.904-0.456-3.861-0.641-5.822-0.551 c0.017-0.001,0.029-0.013,0.026-0.028c-0.002-0.014-0.011-0.026-0.026-0.026c1.94-0.089,3.88,0.092,5.764,0.536h0.002 C83.598,18.196,83.611,18.215,83.625,18.233"></path> <path fill="#3F4447" d="M77.846,17.666c0,0.015-0.012,0.026-0.025,0.028h-0.004c-0.016,0-0.023-0.012-0.024-0.026 c-0.001-0.015,0.01-0.027,0.026-0.028h0.002C77.834,17.64,77.843,17.652,77.846,17.666"></path> <path fill="#3F4447" d="M77.818,17.64c-0.018,0-0.027,0.013-0.026,0.028c0.001,0.014,0.01,0.026,0.024,0.026 c-1.853,0.085-3.719,0.291-5.549,0.613c0.014-0.004,0.021-0.018,0.021-0.031c-0.003-0.014-0.015-0.022-0.028-0.022 C74.092,17.932,75.962,17.725,77.818,17.64"></path> <path fill="#3F4447" d="M74.477,9.152c0.006,0.006,0.006,0.015,0.004,0.023c-0.002,0.013-0.015,0.02-0.025,0.02h-0.006 c-0.002,0-0.004-0.001-0.006-0.001c0-0.001-0.002-0.003-0.002-0.003c-0.016-0.008-0.018-0.026-0.008-0.037 c0.006-0.008,0.014-0.012,0.021-0.012c0.003,0,0.009,0.001,0.012,0.004c0.002,0,0.003,0,0.003,0.001h0.002 C74.475,9.15,74.475,9.151,74.477,9.152"></path> </g> <polygon fill="#3F4447" points="74.471,9.146 74.471,9.146 74.465,9.146 "></polygon> <g> <path fill="#3F4447" d="M74.439,9.189c0.002,0,0.004,0.002,0.006,0.003c-0.764-0.197-1.549-0.304-2.334-0.314 c0.014,0,0.027-0.011,0.027-0.026c0-0.014-0.015-0.027-0.027-0.027c0.789,0.009,1.578,0.114,2.344,0.315 c-0.008,0-0.016,0.005-0.021,0.013C74.424,9.166,74.427,9.184,74.439,9.189"></path> <path fill="#3F4447" d="M72.287,18.274c0.003,0.013-0.006,0.028-0.018,0.031c-0.002,0.001-0.002,0.001-0.004,0.001h-0.005 c-0.014,0-0.024-0.01-0.026-0.023c-0.004-0.014,0.007-0.027,0.021-0.03h0.004C72.271,18.253,72.284,18.263,72.287,18.274"></path> <path fill="#3F4447" d="M72.26,18.308h0.004c-1.894,0.362-3.789,0.835-5.634,1.407c0.009-0.008,0.013-0.02,0.011-0.032 c-0.006-0.013-0.019-0.021-0.031-0.017c1.848-0.573,3.746-1.049,5.646-1.412c-0.014,0.005-0.024,0.017-0.021,0.031 C72.236,18.298,72.248,18.308,72.26,18.308"></path> <path fill="#3F4447" d="M72.111,8.826c0.016,0,0.027,0.013,0.027,0.027c0,0.015-0.013,0.027-0.027,0.027 c-0.016,0-0.026-0.012-0.026-0.027c0-0.014,0.011-0.027,0.024-0.027H72.111z"></path> <path fill="#3F4447" d="M72.111,8.88c-0.061-0.001-0.117-0.001-0.176-0.001c-0.955,0-1.914,0.106-2.85,0.316 c0.016-0.003,0.023-0.016,0.02-0.031c0-0.012-0.013-0.022-0.024-0.022c0.994-0.223,2.012-0.33,3.028-0.316 c-0.015,0-0.024,0.013-0.024,0.027C72.084,8.868,72.095,8.88,72.111,8.88"></path> <path fill="#3F4447" d="M69.107,9.164c0.002,0.015-0.006,0.029-0.021,0.031c-0.002,0-0.003,0.002-0.005,0.002 c-0.013,0-0.024-0.01-0.026-0.022c-0.002-0.014,0.006-0.029,0.021-0.032h0.005C69.093,9.143,69.105,9.152,69.107,9.164"></path> <path fill="#3F4447" d="M69.055,9.174c0.002,0.013,0.014,0.021,0.025,0.021c-1.034,0.214-2.051,0.533-3.02,0.946 c0.014-0.006,0.02-0.022,0.015-0.036c-0.007-0.013-0.021-0.019-0.036-0.014c0.975-0.417,1.996-0.735,3.036-0.948 C69.061,9.146,69.052,9.161,69.055,9.174"></path> <path fill="#3F4447" d="M66.641,19.683c0.002,0.012-0.002,0.023-0.011,0.031c-0.002,0.001-0.004,0.002-0.008,0.003 c-0.002,0.002-0.006,0.002-0.009,0.002c-0.012,0-0.021-0.008-0.024-0.02c-0.006-0.014,0.002-0.028,0.017-0.034h0.004 C66.623,19.662,66.636,19.67,66.641,19.683"></path> <path fill="#3F4447" d="M66.615,19.718h0.006c-1.521,0.484-3.043,1.047-4.527,1.669c0.014-0.005,0.02-0.022,0.016-0.035 c-0.006-0.013-0.022-0.02-0.034-0.014c1.483-0.624,3.01-1.186,4.532-1.672c-0.015,0.006-0.022,0.019-0.02,0.032 C66.593,19.711,66.602,19.718,66.615,19.718"></path> <path fill="#3F4447" d="M66.076,10.104c0.005,0.014-0.002,0.03-0.014,0.036c-0.004,0.001-0.008,0.002-0.012,0.002 c-0.012,0-0.021-0.007-0.023-0.017c-0.006-0.013,0-0.029,0.013-0.034C66.055,10.086,66.07,10.093,66.076,10.104"></path> <path fill="#3F4447" d="M66.05,10.143c0.005,0,0.009,0,0.011-0.002c-0.894,0.375-1.771,0.817-2.607,1.317 c0.012-0.008,0.016-0.023,0.008-0.036c-0.006-0.011-0.021-0.014-0.033-0.01c0.84-0.501,1.717-0.945,2.613-1.321 c-0.016,0.006-0.02,0.022-0.016,0.036C66.029,10.137,66.041,10.143,66.05,10.143"></path> <path fill="#3F4447" d="M63.46,11.422c0.007,0.012,0.003,0.028-0.007,0.036c-0.001,0-0.001,0.001-0.003,0.001 c-0.003,0.003-0.011,0.004-0.015,0.004c-0.008,0-0.019-0.004-0.021-0.013c-0.008-0.013-0.005-0.028,0.008-0.036 c0.002-0.002,0.002-0.002,0.004-0.002h0.001C63.439,11.408,63.454,11.411,63.46,11.422"></path> <path fill="#3F4447" d="M63.453,11.458c0,0.001,0,0.002-0.002,0.002c-1.235,0.725-2.432,1.55-3.555,2.452 c0.012-0.009,0.016-0.026,0.004-0.038c-0.01-0.011-0.025-0.013-0.037-0.003c1.123-0.904,2.322-1.73,3.561-2.458 c0.001,0,0.002-0.001,0.003-0.001c-0.001,0.001-0.002,0.001-0.003,0.002c-0.014,0.008-0.018,0.023-0.008,0.037 c0.004,0.008,0.014,0.012,0.021,0.012c0.004,0,0.01,0,0.014-0.004C63.453,11.459,63.453,11.458,63.453,11.458"></path> <path fill="#3F4447" d="M62.107,21.352c0.006,0.014,0,0.03-0.013,0.035c-0.004,0.001-0.009,0.003-0.012,0.003 c-0.013,0-0.021-0.007-0.024-0.017c-0.004-0.014,0.002-0.03,0.014-0.035C62.086,21.332,62.104,21.339,62.107,21.352"></path> <path fill="#3F4447" d="M62.083,21.389c0.002,0,0.007-0.001,0.01-0.002c-1.454,0.615-2.895,1.319-4.282,2.093 c0.012-0.008,0.018-0.024,0.012-0.036c-0.008-0.013-0.025-0.018-0.037-0.011c1.389-0.775,2.832-1.481,4.289-2.096 c-0.016,0.006-0.021,0.022-0.016,0.036C62.062,21.383,62.074,21.389,62.083,21.389"></path> <path fill="#3F4447" d="M59.902,13.874c0.008,0.012,0.007,0.029-0.006,0.038c-0.004,0.004-0.011,0.006-0.017,0.006 c-0.008,0-0.017-0.003-0.021-0.01c-0.012-0.011-0.008-0.029,0.002-0.037C59.875,13.861,59.893,13.864,59.902,13.874"></path> <path fill="#3F4447" d="M59.88,13.917c0.006,0,0.013-0.002,0.019-0.007c-1.262,1.011-2.461,2.114-3.572,3.283 c0.009-0.011,0.009-0.026-0.002-0.035c-0.01-0.011-0.026-0.012-0.037-0.001c1.113-1.171,2.314-2.277,3.576-3.287 c-0.012,0.008-0.014,0.026-0.004,0.037C59.865,13.916,59.874,13.917,59.88,13.917"></path> <path fill="#3F4447" d="M57.822,23.444c0.006,0.013,0.002,0.029-0.012,0.036c-0.006,0.003-0.009,0.003-0.015,0.003 c-0.008,0-0.019-0.005-0.022-0.013c-0.006-0.013-0.002-0.029,0.012-0.037C57.796,23.426,57.814,23.431,57.822,23.444"></path> <path fill="#3F4447" d="M57.797,23.482c0.004,0,0.008,0,0.014-0.003c-1.193,0.666-2.373,1.402-3.513,2.189 c0.013-0.01,0.015-0.026,0.005-0.039c-0.009-0.012-0.023-0.013-0.035-0.005c1.139-0.788,2.322-1.526,3.518-2.193 c-0.014,0.008-0.018,0.025-0.012,0.038C57.779,23.479,57.788,23.482,57.797,23.482"></path> <path fill="#3F4447" d="M56.324,17.159c0.011,0.008,0.011,0.025,0.002,0.035c0,0.001-0.002,0.001-0.002,0.001 c-0.004,0.006-0.012,0.009-0.02,0.009c-0.007,0-0.014-0.002-0.019-0.008c-0.011-0.008-0.013-0.024-0.004-0.035 c0.003-0.002,0.003-0.002,0.004-0.003C56.297,17.147,56.314,17.148,56.324,17.159"></path> <path fill="#3F4447" d="M56.324,17.196L56.324,17.196c-0.922,0.899-1.788,1.875-2.575,2.9c0.007-0.01,0.005-0.024-0.005-0.033 c-0.012-0.009-0.029-0.008-0.038,0.004c0.788-1.029,1.653-2.005,2.577-2.905c-0.008,0.01-0.006,0.026,0.004,0.034 c0.006,0.006,0.012,0.008,0.02,0.008C56.312,17.204,56.32,17.201,56.324,17.196"></path> <path fill="#3F4447" d="M54.305,25.631c0.008,0.013,0.006,0.029-0.007,0.038c0,0.001-0.002,0.001-0.002,0.002 c-0.005,0.002-0.01,0.003-0.014,0.003c-0.009,0-0.019-0.004-0.023-0.012c-0.008-0.011-0.004-0.028,0.007-0.036 c0,0,0.002,0,0.002-0.001C54.279,25.617,54.296,25.619,54.305,25.631"></path> <path fill="#3F4447" d="M54.283,25.674c0.004,0,0.01-0.001,0.013-0.003c-1.138,0.823-2.239,1.717-3.276,2.658 c-0.002,0-0.002,0.002-0.004,0.003c0.004-0.003,0.008-0.006,0.01-0.01c0.007-0.013,0.002-0.03-0.01-0.037 c-0.006-0.003-0.012-0.007-0.018-0.01c1.035-0.938,2.135-1.83,3.27-2.65c-0.013,0.009-0.015,0.026-0.008,0.037 C54.266,25.67,54.275,25.674,54.283,25.674"></path> <path fill="#3F4447" d="M53.743,20.062c0.011,0.009,0.013,0.023,0.007,0.034c-0.002,0-0.002,0.003-0.004,0.005 c-0.005,0.005-0.012,0.008-0.021,0.008c-0.004,0-0.011-0.001-0.015-0.005c-0.013-0.008-0.015-0.022-0.008-0.034 c0-0.002,0.002-0.004,0.002-0.005C53.714,20.055,53.73,20.054,53.743,20.062"></path> <path fill="#3F4447" d="M53.725,20.11c0.01,0,0.018-0.003,0.021-0.01c-0.934,1.125-1.805,2.317-2.59,3.54 c0.004-0.012,0.002-0.026-0.01-0.033c-0.013-0.006-0.025-0.005-0.033,0.004c0.783-1.225,1.654-2.416,2.59-3.541 c-0.008,0.012-0.004,0.026,0.006,0.035C53.713,20.108,53.721,20.11,53.725,20.11"></path> <path fill="#3F4447" d="M51.117,23.652c-0.014-0.008-0.016-0.025-0.008-0.036v-0.002c0-0.001,0-0.002,0.002-0.003 c0.01-0.01,0.022-0.011,0.035-0.004c0.01,0.007,0.014,0.021,0.008,0.033c0,0.001,0,0.004-0.002,0.004 c-0.004,0.008-0.012,0.012-0.021,0.012C51.125,23.657,51.121,23.656,51.117,23.652"></path> <path fill="#3F4447" d="M51.13,23.657c0.009,0,0.019-0.005,0.022-0.012c-0.793,1.187-1.53,2.433-2.194,3.706 c-0.008-0.003-0.017-0.006-0.024-0.009c0.662-1.269,1.391-2.5,2.184-3.69C51.121,23.657,51.126,23.657,51.13,23.657"></path> <path fill="#3F4447" d="M51.107,23.616c-0.006,0.012-0.004,0.029,0.01,0.037c-0.793,1.189-1.521,2.42-2.184,3.689 c0,0-0.004-0.001-0.006-0.001c-0.011-0.003-0.021,0.001-0.029,0.01C49.566,26.068,50.309,24.813,51.107,23.616"></path> <path fill="#3F4447" d="M51.016,28.285c0.012,0.007,0.018,0.025,0.01,0.038c-0.004,0.004-0.008,0.007-0.012,0.009 c-0.003,0.001-0.005,0.002-0.007,0.002c-0.002,0.002-0.004,0.002-0.006,0.002c-0.005,0-0.011-0.002-0.015-0.004 c-0.002-0.001-0.004-0.003-0.008-0.005c-0.01-0.011-0.008-0.028,0.004-0.038c0.004-0.004,0.009-0.008,0.015-0.014 C51.003,28.278,51.009,28.282,51.016,28.285"></path> <path fill="#3F4447" d="M50.998,28.274c-0.005,0.005-0.01,0.01-0.016,0.014c-0.01,0.009-0.012,0.027-0.002,0.037 c0.002,0.003,0.004,0.005,0.008,0.006c-0.655-0.382-1.354-0.698-2.076-0.939c-0.001,0-0.002-0.002-0.003-0.003 c0.004,0.003,0.007,0.003,0.011,0.003c0.01,0,0.02-0.005,0.023-0.014c0.006-0.009,0.011-0.019,0.016-0.028 C49.667,27.591,50.354,27.901,50.998,28.274"></path> <path fill="#3F4447" d="M48.934,27.342c0.008,0.003,0.018,0.006,0.024,0.009c-0.006,0.011-0.01,0.019-0.017,0.029 c-0.002,0.008-0.012,0.013-0.021,0.013c-0.005,0-0.009,0-0.013-0.003c-0.005-0.002-0.009-0.005-0.011-0.01 c-0.004-0.004-0.004-0.008-0.004-0.013v-0.002c0-0.003,0-0.007,0.002-0.011c0.002-0.002,0.002-0.003,0.004-0.004 c0.006-0.008,0.019-0.013,0.029-0.009C48.93,27.341,48.932,27.342,48.934,27.342"></path> </g> <polygon fill="#3F4447" points="48.895,27.356 48.893,27.366 48.896,27.354 "></polygon> <g> <path fill="#3F4447" d="M30.732,46.116c0-2.397-1.944-4.344-4.343-4.344s-4.344,1.945-4.344,4.344s1.945,4.345,4.344,4.345 C28.789,50.461,30.732,48.516,30.732,46.116 M35.805,40.186v12.402H30.77V49.86c-0.537,0.832-1.245,1.541-2.079,2.078 c-3.22,2.07-7.51,1.141-9.584-2.078c-2.071-3.222-1.142-7.512,2.079-9.584c3.22-2.072,7.51-1.143,9.584,2.078v-2.17L35.805,40.186 L35.805,40.186z"></path> </g> <rect x="85.296" y="40.131" fill="#3F4447" width="5.099" height="12.526"></rect> <path fill="#3F4447" d="M30.227,26.667c-1.813-0.563-3.652-1.042-5.511-1.432c-2.289-0.483-4.607-0.818-6.94-1.001 c-1.446-0.118-2.897-0.158-4.347-0.12c-1.858,0.034-3.712,0.2-5.546,0.494c-1.834,0.293-3.643,0.732-5.408,1.313 c-1.6,3.947-2.424,8.166-2.425,12.425c1.226-1.196,2.546-2.293,3.948-3.276c1.744-1.281,3.636-2.353,5.633-3.188 c3.032-1.292,6.234-2.143,9.507-2.529c3.058-0.416,6.146-0.572,9.23-0.466c3.204,0.09,6.399,0.379,9.567,0.864 c-1.139-0.594-2.309-1.125-3.506-1.589C33.055,27.593,31.652,27.095,30.227,26.667"></path> <path fill="#3F4447" d="M30.227,26.667c-1.813-0.563-3.652-1.042-5.511-1.432c-2.289-0.483-4.607-0.818-6.94-1.001 c-1.446-0.118-2.897-0.158-4.347-0.12c-1.858,0.034-3.712,0.2-5.546,0.494c-1.834,0.293-3.643,0.732-5.408,1.313 c-1.6,3.947-2.424,8.166-2.425,12.425c1.226-1.196,2.546-2.293,3.948-3.276c1.744-1.281,3.636-2.353,5.633-3.188 c3.032-1.292,6.234-2.143,9.507-2.529c3.058-0.416,6.146-0.572,9.23-0.466c3.204,0.09,6.399,0.379,9.567,0.864 c-1.139-0.594-2.309-1.125-3.506-1.589C33.055,27.593,31.652,27.095,30.227,26.667"></path> <path fill="#3F4447" d="M41.475,27.345c-0.701,0.238-1.38,0.546-2.021,0.917c-1.033-0.938-2.132-1.828-3.265-2.646h-0.001 c0-0.001-0.002-0.002-0.003-0.002c-1.13-0.783-2.313-1.52-3.513-2.19c-1.386-0.773-2.83-1.479-4.291-2.097 c-1.48-0.622-3.006-1.184-4.534-1.672c-1.848-0.574-3.749-1.048-5.651-1.412c-0.002,0-0.005-0.001-0.007-0.001 c-1.83-0.321-3.699-0.528-5.556-0.614c-1.928-0.089-3.859,0.089-5.74,0.529c2.531-3.474,5.598-6.486,9.119-8.954 c0.759-0.196,1.542-0.301,2.326-0.312h0.002c1.016-0.015,2.031,0.093,3.021,0.315h0.001h0.008c1.032,0.214,2.046,0.532,3.015,0.945 c0.896,0.377,1.774,0.819,2.609,1.318c1.238,0.728,2.433,1.552,3.552,2.452c1.258,1.009,2.459,2.113,3.572,3.283h0.001h0.001 c0.924,0.903,1.79,1.878,2.574,2.904v0.001c0.933,1.121,1.805,2.313,2.593,3.542C40.078,24.839,40.816,26.08,41.475,27.345"></path> <path fill="#3F4447" d="M56.083,40.186v1.835h-2.74v10.567h-5.356V42.021h-4.513v10.567h-5.357V42.021h-1.894v-1.835h1.894v-3.518 c0.245-2.834,2.622-5.005,5.464-4.992h2.391v2.776h-0.175c-1.188-0.092-2.225,0.798-2.317,1.984 c-0.006,0.076-0.008,0.154-0.006,0.23v3.518h4.513v-3.518c0.252-2.883,2.703-5.07,5.595-4.992h2.261v2.775h-0.506 c-1.148,0.09-2.025,1.063-1.992,2.217v3.518L56.083,40.186L56.083,40.186z"></path> <path fill="#3F4447" d="M84.307,43.523v9.134h-5.06v-7.64c-0.048-0.784-0.481-1.491-1.156-1.882 c-0.612-0.393-1.371-0.482-2.057-0.243c-0.429,0.142-0.806,0.415-1.072,0.781c-0.237,0.235-0.387,0.545-0.42,0.878v8.105H69.48 V40.131h5.062v1.608l2.965-1.608c0.584-0.312,1.226-0.496,1.884-0.546c0.735-0.127,1.491-0.067,2.198,0.175 c0.492,0.188,0.951,0.461,1.354,0.804c0.394,0.34,0.714,0.76,0.939,1.229C84.154,42.327,84.298,42.922,84.307,43.523"></path> <path fill="#3F4447" d="M62.083,2.884c-1.662,0.518-3.224,1.31-4.621,2.345c-1.334,1.031-2.537,2.22-3.584,3.543 c-1.106,1.415-2.067,2.936-2.869,4.543c-0.893,1.862-1.647,3.788-2.266,5.759c-0.647,1.807-1.149,3.664-1.5,5.551 c-0.179,0.744-0.324,1.496-0.44,2.252c-0.523-0.069-1.051-0.101-1.578-0.096c-0.528-0.005-1.055,0.027-1.578,0.096 c-0.118-0.756-0.263-1.508-0.44-2.252c-0.351-1.887-0.852-3.744-1.5-5.551c-0.618-1.971-1.375-3.897-2.265-5.759 c-0.803-1.607-1.765-3.128-2.871-4.543c-1.046-1.323-2.249-2.512-3.584-3.543c-1.398-1.035-2.96-1.827-4.621-2.345 C33.774,0.949,39.481-0.027,45.225,0C50.969-0.027,56.675,0.949,62.083,2.884"></path> <path fill="#3F4447" d="M69.291,46.106c0-3.832-3.105-6.939-6.939-6.939c-3.832,0-6.938,3.107-6.938,6.939 c0,3.833,3.105,6.939,6.938,6.939C66.186,53.047,69.291,49.939,69.291,46.106 M68.102,46.106c0,2.401-1.945,4.348-4.348,4.348 c-2.398,0-4.347-1.945-4.347-4.348c0-2.4,1.946-4.346,4.347-4.346C66.156,41.762,68.102,43.706,68.102,46.106"></path> <path fill="#3F4447" d="M69.291,46.106c0-3.832-3.105-6.939-6.939-6.939c-3.832,0-6.938,3.107-6.938,6.939 c0,3.833,3.105,6.939,6.938,6.939C66.186,53.047,69.291,49.939,69.291,46.106 M68.102,46.106c0,2.401-1.945,4.348-4.348,4.348 c-2.398,0-4.347-1.945-4.347-4.348c0-2.4,1.946-4.346,4.347-4.346C66.156,41.762,68.102,43.706,68.102,46.106"></path> <path fill="#3F4447" d="M87.969,25.925c1.602,3.943,2.424,8.159,2.426,12.418c-1.228-1.197-2.547-2.294-3.945-3.277 c-1.746-1.279-3.637-2.351-5.633-3.185c-3.031-1.293-6.232-2.142-9.504-2.527c-3.059-0.416-6.146-0.572-9.229-0.466 c-3.203,0.09-6.397,0.378-9.563,0.863c1.139-0.594,2.309-1.124,3.506-1.587c1.375-0.568,2.776-1.066,4.199-1.494 c1.813-0.562,3.651-1.04,5.51-1.431c2.289-0.483,4.606-0.816,6.938-1c1.445-0.117,2.896-0.158,4.347-0.12 c1.857,0.035,3.709,0.2,5.545,0.495C84.396,24.904,86.207,25.344,87.969,25.925"></path> <path fill="#3F4447" d="M74.443,9.194c3.531,2.472,6.604,5.496,9.139,8.982c-1.884-0.445-3.822-0.625-5.764-0.536l0,0 c-1.855,0.084-3.726,0.292-5.56,0.614h-0.004c-1.899,0.363-3.8,0.838-5.646,1.411c-0.002-0.001-0.002,0-0.004,0 c-1.521,0.487-3.047,1.049-4.532,1.673c-1.456,0.615-2.899,1.32-4.289,2.095c-1.192,0.667-2.378,1.405-3.517,2.191 c0,0.002-0.002,0.002-0.002,0.002c-1.134,0.818-2.231,1.712-3.269,2.649c-0.646-0.373-1.33-0.684-2.039-0.924 c0.664-1.273,1.401-2.519,2.194-3.706c0.002-0.001,0.002-0.003,0.002-0.004c0.785-1.224,1.656-2.415,2.591-3.54 c0.002-0.001,0.002-0.003,0.004-0.004c0.787-1.026,1.651-2.003,2.575-2.9v-0.002v-0.001c1.111-1.168,2.312-2.272,3.572-3.283 c1.121-0.9,2.316-1.726,3.554-2.451c0.002,0,0.002-0.001,0.002-0.002c0.835-0.5,1.715-0.942,2.608-1.317 c0.969-0.413,1.984-0.731,3.02-0.945c0.003,0,0.005-0.002,0.007-0.002c0.933-0.209,1.894-0.315,2.847-0.315 c0.061,0,0.118,0,0.178,0.001C72.896,8.89,73.682,8.996,74.443,9.194"></path> <path fill="#3F4447" d="M16.706,42.272c-2.118-3.191-6.423-4.061-9.612-1.941c-0.771,0.511-1.43,1.171-1.941,1.941v-2.088H0v16.93 h5.153v-7.172c2.118,3.189,6.421,4.062,9.611,1.941C17.954,49.767,18.824,45.463,16.706,42.272 M13.861,46.081 c0,2.4-1.946,4.347-4.347,4.347c-2.4,0-4.345-1.944-4.345-4.347c0-2.4,1.945-4.346,4.345-4.346 C11.915,41.735,13.861,43.682,13.861,46.081"></path> </svg>